<?xml version="1.0" encoding="iso-8859-1"?>
<!-- Generator: Adobe Illustrator 19.0.0, SVG Export Plug-In . SVG Version: 6.00 Build 0)  -->
<svg version="1.1" id="Layer_1" xmlns="http://www.w3.org/2000/svg" xmlns:xlink="http://www.w3.org/1999/xlink" x="0px" y="0px"
	 viewBox="0 0 512.001 512.001" style="enable-background:new 0 0 512.001 512.001;" xml:space="preserve">
<path style="fill:#9AD14B;" d="M276.809,290.285v48.013c0,9.302-7.549,16.851-16.851,16.851c-9.313,0-16.851-7.549-16.851-16.851
	v-48.013c5.493-0.865,11.122-1.314,16.851-1.314S271.316,289.42,276.809,290.285z"/>
<path style="fill:#F7B239;" d="M276.809,290.285c51.249,8.088,90.444,52.451,90.444,105.991
	c0,59.259-48.036,107.295-107.295,107.295c-59.27,0-107.306-48.036-107.306-107.295c0-53.541,39.195-97.903,90.455-105.991v34.05
	c-32.679,7.628-57.023,36.937-57.023,71.942c0,40.79,33.072,73.863,73.874,73.863c40.79,0,73.874-33.072,73.874-73.863
	c0-35.005-24.355-64.314-57.023-71.942V290.285L276.809,290.285z"/>
<path style="fill:#90BC42;" d="M276.809,290.285v22.277h-33.702v-22.277c5.493-0.865,11.122-1.314,16.851-1.314
	S271.316,289.42,276.809,290.285z"/>
<path style="fill:#F7B239;" d="M350.177,237.171H161.819c9.111-23.456,26.737-42.666,49.081-53.833
	c8.65-4.325,13.952-13.368,13.952-23.041v-0.393c0-18.536-6.617-36.285-18.008-50.889c-8.953-11.47-13.986-26.164-13.043-42.037
	c1.854-31.747,27.961-57.281,59.742-58.506c35.533-1.348,64.774,27.04,64.774,62.269c0,14.829-5.19,28.433-13.84,39.116
	c-5.74,7.111-10.077,15.154-12.975,23.715c-2.887,8.549-4.347,17.603-4.347,26.748c0,9.818,5.538,18.783,14.312,23.209
	c9.639,4.864,18.39,11.211,25.95,18.772C337.236,212.12,345.055,223.971,350.177,237.171z"/>
<path style="fill:#FFFFFF;" d="M314.479,252.699c-3.994,0-7.54-2.851-8.279-6.92c-2.274-12.506-16.746-26.055-22.132-30.221
	c-3.676-2.844-4.36-8.133-1.521-11.814c2.841-3.681,8.12-4.37,11.805-1.536c0.248,0.191,6.154,4.759,12.489,11.773
	c8.894,9.846,14.256,19.53,15.939,28.783c0.832,4.578-2.204,8.965-6.782,9.797C315.487,252.654,314.979,252.699,314.479,252.699z"/>
<path style="fill:#E09B2D;" d="M246.285,183.339c8.157-5.196,13.952-13.368,13.952-23.041v-0.393
	c0-18.536-6.617-36.285-18.008-50.889c-8.953-11.47-13.986-26.164-13.043-42.037c1.547-26.497,19.995-48.654,44.53-55.973
	c-6.362-1.885-13.141-2.799-20.174-2.533c-31.781,1.224-57.888,26.759-59.742,58.506c-0.944,15.873,4.089,30.567,13.043,42.037
	c11.391,14.604,18.008,32.354,18.008,50.889v0.393c0,9.672-5.302,18.716-13.952,23.041c-22.344,11.166-39.97,30.376-49.081,53.833
	h56.624C218.445,237.171,216.759,202.146,246.285,183.339z"/>
<path style="fill:#9AD14B;" d="M419.524,261.582v2.977c0,13.481-10.931,24.411-24.411,24.411H276.809h-16.851h-16.851H116.884
	c-13.481,0-24.4-10.931-24.4-24.411v-2.977c0-13.481,10.919-24.411,24.4-24.411h44.935h188.358h44.935
	C408.593,237.171,419.524,248.102,419.524,261.582z"/>
<path style="fill:#90BC42;" d="M176.734,264.559v-2.977c0-13.481,10.919-24.411,24.4-24.411H161.82h-44.935
	c-13.481,0-24.4,10.931-24.4,24.411v2.977c0,13.481,10.919,24.411,24.4,24.411h84.249
	C187.654,288.971,176.734,278.04,176.734,264.559z"/>
<g>
	<path style="fill:#FFFFFF;" d="M276.61,108.893c-1.588,0-3.195-0.448-4.62-1.386c-3.888-2.556-4.968-7.781-2.411-11.669
		c2.029-3.086,4.219-6.093,6.512-8.938c3.744-4.627,5.718-10.209,5.718-16.159c0-7.713-3.432-14.968-9.415-19.904
		c-3.588-2.961-4.097-8.271-1.137-11.861c2.964-3.589,8.271-4.097,11.862-1.137c9.877,8.149,15.541,20.141,15.541,32.902
		c0,9.85-3.27,19.099-9.459,26.746c-1.942,2.411-3.811,4.974-5.543,7.608C282.039,107.556,279.35,108.893,276.61,108.893z"/>
	<path style="fill:#FFFFFF;" d="M341.444,271.254c-4.558,0-8.307-3.638-8.419-8.22c-0.113-4.646,3.556-8.505,8.198-8.629
		c0.485-0.016,1.073-0.025,50.775-0.025c4.626,0,8.387,3.73,8.425,8.356c0.038,4.626-3.661,8.418-8.286,8.494l-1.359,0.022
		c-0.249,0.002-0.51-0.002-0.762-0.021c-39.179,0-47.681,0.007-48.279,0.018l-0.085,0.002
		C341.584,271.254,341.514,271.254,341.444,271.254z"/>
	<circle style="fill:#FFFFFF;" cx="255.987" cy="36.442" r="8.425"/>
</g>
<path style="fill:#333333;" d="M393.625,228.748h-37.845c-5.426-12.065-12.945-22.945-22.405-32.406
	c-8.247-8.246-17.706-15.088-28.115-20.337c-5.972-3.011-9.682-9.023-9.682-15.689c0-16.785,5.488-32.823,15.445-45.154
	c10.134-12.519,15.716-28.292,15.716-44.415c0-19.404-7.701-37.504-21.684-50.966c-13.983-13.46-32.361-20.47-51.84-19.727
	c-35.933,1.385-65.728,30.565-67.831,66.427c-1.018,17.238,4.243,34.187,14.812,47.719c10.614,13.609,16.224,29.414,16.224,45.704
	v0.391c0,6.598-3.648,12.684-9.292,15.506c-22.677,11.334-40.559,30.007-50.892,52.949h-37.863
	c-18.926,0-34.323,15.397-34.323,34.323s15.397,34.323,34.323,34.323h81.499c-33.341,20.334-55.648,57.049-55.648,98.877
	c0,63.813,51.916,115.729,115.729,115.729s115.728-51.915,115.728-115.729c0-41.828-22.306-78.543-55.648-98.877h73.59
	c18.926,0,34.323-15.397,34.323-34.323S412.551,228.748,393.625,228.748z M214.664,190.872
	c11.305-5.651,18.608-17.653,18.608-30.579v-0.391c0-20.081-6.843-39.469-19.791-56.07c-8.047-10.304-12.051-23.216-11.273-36.362
	c1.601-27.307,24.292-49.523,51.653-50.578c14.843-0.566,28.855,4.774,39.507,15.029c10.652,10.255,16.519,24.044,16.519,38.826
	c0,12.454-4.137,24.146-11.969,33.821c-12.377,15.326-19.193,35.125-19.193,55.749c0,13.067,7.26,24.845,18.948,30.737
	c8.806,4.44,16.808,10.227,23.784,17.204c6.154,6.154,11.336,13.014,15.488,20.492H175.058
	C184.073,212.507,197.808,199.297,214.664,190.872z M268.385,297.757v40.542c0,4.646-3.779,8.425-8.425,8.425
	s-8.425-3.779-8.425-8.425v-40.542c2.777-0.235,5.585-0.363,8.422-0.363C262.795,297.394,265.605,297.521,268.385,297.757z
	 M259.959,363.575c13.937,0,25.276-11.338,25.276-25.276v-2.427c24.103,10.002,40.172,33.509,40.172,60.406
	c0,36.082-29.36,65.437-65.448,65.437s-65.448-29.355-65.448-65.437c0-26.898,16.069-50.405,40.172-60.406v2.428
	C234.683,352.235,246.021,363.575,259.959,363.575z M358.832,396.271c0,54.521-44.356,98.878-98.877,98.878
	s-98.878-44.356-98.878-98.878c0-45.788,31.287-84.402,73.605-95.599v17.263c-33.891,10.849-57.023,42.157-57.023,78.342
	c0,45.374,36.919,82.288,82.299,82.288s82.299-36.914,82.299-82.288c0-36.181-23.131-67.49-57.023-78.34v-17.262
	C327.549,311.873,358.832,350.485,358.832,396.271z M393.625,280.543h-275.25c-9.634,0-17.472-7.838-17.472-17.472
	c0-9.634,7.838-17.472,17.472-17.472h43.449h188.351h43.449c9.634,0,17.472,7.838,17.472,17.472
	C411.097,272.705,403.259,280.543,393.625,280.543z"/>
<g>
</g>
<g>
</g>
<g>
</g>
<g>
</g>
<g>
</g>
<g>
</g>
<g>
</g>
<g>
</g>
<g>
</g>
<g>
</g>
<g>
</g>
<g>
</g>
<g>
</g>
<g>
</g>
<g>
</g>
</svg>
